<mxfile host="app.diagrams.net" modified="2021-11-15T07:05:20.035Z" agent="5.0 (Windows NT 10.0; Win64; x64) AppleWebKit/537.36 (KHTML, like Gecko) Chrome/95.0.4638.69 Safari/537.36 Edg/95.0.1020.44" etag="v6h1ycu1iDwY-MXDzPtB" version="15.7.3" type="github">
  <diagram id="j-hfwfwADfFg2-2y4FFS" name="Page-1">
    <mxGraphModel dx="1614" dy="786" grid="1" gridSize="10" guides="1" tooltips="1" connect="1" arrows="1" fold="1" page="1" pageScale="1" pageWidth="827" pageHeight="1169" math="0" shadow="0">
      <root>
        <mxCell id="0" />
        <mxCell id="1" parent="0" />
        <mxCell id="kllltfMufQYbzrhNUkab-3" style="edgeStyle=orthogonalEdgeStyle;rounded=0;orthogonalLoop=1;jettySize=auto;html=1;exitX=0.5;exitY=1;exitDx=0;exitDy=0;entryX=0.5;entryY=0;entryDx=0;entryDy=0;" edge="1" parent="1" source="kllltfMufQYbzrhNUkab-1" target="kllltfMufQYbzrhNUkab-2">
          <mxGeometry relative="1" as="geometry" />
        </mxCell>
        <mxCell id="kllltfMufQYbzrhNUkab-1" value="上升沿" style="rounded=1;whiteSpace=wrap;html=1;" vertex="1" parent="1">
          <mxGeometry x="170" y="100" width="120" height="60" as="geometry" />
        </mxCell>
        <mxCell id="kllltfMufQYbzrhNUkab-5" value="N" style="edgeStyle=orthogonalEdgeStyle;rounded=0;orthogonalLoop=1;jettySize=auto;html=1;exitX=0.5;exitY=1;exitDx=0;exitDy=0;entryX=0.5;entryY=0;entryDx=0;entryDy=0;" edge="1" parent="1" source="kllltfMufQYbzrhNUkab-2" target="kllltfMufQYbzrhNUkab-4">
          <mxGeometry relative="1" as="geometry" />
        </mxCell>
        <mxCell id="kllltfMufQYbzrhNUkab-7" style="edgeStyle=orthogonalEdgeStyle;rounded=0;orthogonalLoop=1;jettySize=auto;html=1;exitX=1;exitY=0.5;exitDx=0;exitDy=0;entryX=0;entryY=0.5;entryDx=0;entryDy=0;" edge="1" parent="1" source="kllltfMufQYbzrhNUkab-2" target="kllltfMufQYbzrhNUkab-6">
          <mxGeometry relative="1" as="geometry" />
        </mxCell>
        <mxCell id="kllltfMufQYbzrhNUkab-8" value="Y" style="edgeLabel;html=1;align=center;verticalAlign=middle;resizable=0;points=[];" vertex="1" connectable="0" parent="kllltfMufQYbzrhNUkab-7">
          <mxGeometry x="-0.1359" relative="1" as="geometry">
            <mxPoint as="offset" />
          </mxGeometry>
        </mxCell>
        <mxCell id="kllltfMufQYbzrhNUkab-2" value="是否复位" style="rounded=1;whiteSpace=wrap;html=1;" vertex="1" parent="1">
          <mxGeometry x="170" y="200" width="120" height="60" as="geometry" />
        </mxCell>
        <mxCell id="kllltfMufQYbzrhNUkab-21" value="N" style="edgeStyle=orthogonalEdgeStyle;rounded=0;orthogonalLoop=1;jettySize=auto;html=1;" edge="1" parent="1" source="kllltfMufQYbzrhNUkab-4" target="kllltfMufQYbzrhNUkab-20">
          <mxGeometry relative="1" as="geometry" />
        </mxCell>
        <mxCell id="kllltfMufQYbzrhNUkab-24" value="Y" style="edgeStyle=orthogonalEdgeStyle;rounded=0;orthogonalLoop=1;jettySize=auto;html=1;" edge="1" parent="1" source="kllltfMufQYbzrhNUkab-4" target="kllltfMufQYbzrhNUkab-10">
          <mxGeometry relative="1" as="geometry" />
        </mxCell>
        <mxCell id="kllltfMufQYbzrhNUkab-4" value="秒钟的个位是否为9" style="rounded=1;whiteSpace=wrap;html=1;" vertex="1" parent="1">
          <mxGeometry x="170" y="300" width="120" height="60" as="geometry" />
        </mxCell>
        <mxCell id="kllltfMufQYbzrhNUkab-9" style="edgeStyle=orthogonalEdgeStyle;rounded=0;orthogonalLoop=1;jettySize=auto;html=1;entryX=1;entryY=0.5;entryDx=0;entryDy=0;" edge="1" parent="1" source="kllltfMufQYbzrhNUkab-6" target="kllltfMufQYbzrhNUkab-1">
          <mxGeometry relative="1" as="geometry">
            <Array as="points">
              <mxPoint x="470" y="130" />
            </Array>
          </mxGeometry>
        </mxCell>
        <mxCell id="kllltfMufQYbzrhNUkab-6" value="时钟清零&lt;br&gt;分钟清零&lt;br&gt;秒钟清零" style="rounded=1;whiteSpace=wrap;html=1;" vertex="1" parent="1">
          <mxGeometry x="414" y="200" width="120" height="60" as="geometry" />
        </mxCell>
        <mxCell id="kllltfMufQYbzrhNUkab-25" value="Y" style="edgeStyle=orthogonalEdgeStyle;rounded=0;orthogonalLoop=1;jettySize=auto;html=1;" edge="1" parent="1" source="kllltfMufQYbzrhNUkab-10" target="kllltfMufQYbzrhNUkab-17">
          <mxGeometry relative="1" as="geometry" />
        </mxCell>
        <mxCell id="kllltfMufQYbzrhNUkab-26" value="N" style="edgeStyle=orthogonalEdgeStyle;rounded=0;orthogonalLoop=1;jettySize=auto;html=1;" edge="1" parent="1" source="kllltfMufQYbzrhNUkab-10" target="kllltfMufQYbzrhNUkab-16">
          <mxGeometry relative="1" as="geometry" />
        </mxCell>
        <mxCell id="kllltfMufQYbzrhNUkab-10" value="秒钟的十位数是否为5" style="rounded=1;whiteSpace=wrap;html=1;" vertex="1" parent="1">
          <mxGeometry x="170" y="390" width="120" height="60" as="geometry" />
        </mxCell>
        <mxCell id="kllltfMufQYbzrhNUkab-45" style="edgeStyle=orthogonalEdgeStyle;rounded=0;orthogonalLoop=1;jettySize=auto;html=1;" edge="1" parent="1" source="kllltfMufQYbzrhNUkab-16">
          <mxGeometry relative="1" as="geometry">
            <mxPoint x="650" y="330" as="targetPoint" />
          </mxGeometry>
        </mxCell>
        <mxCell id="kllltfMufQYbzrhNUkab-16" value="秒钟+07H" style="rounded=1;whiteSpace=wrap;html=1;" vertex="1" parent="1">
          <mxGeometry x="414" y="390" width="120" height="60" as="geometry" />
        </mxCell>
        <mxCell id="kllltfMufQYbzrhNUkab-27" value="N" style="edgeStyle=orthogonalEdgeStyle;rounded=0;orthogonalLoop=1;jettySize=auto;html=1;" edge="1" parent="1" source="kllltfMufQYbzrhNUkab-17" target="kllltfMufQYbzrhNUkab-23">
          <mxGeometry relative="1" as="geometry" />
        </mxCell>
        <mxCell id="kllltfMufQYbzrhNUkab-28" value="Y" style="edgeStyle=orthogonalEdgeStyle;rounded=0;orthogonalLoop=1;jettySize=auto;html=1;" edge="1" parent="1" source="kllltfMufQYbzrhNUkab-17" target="kllltfMufQYbzrhNUkab-22">
          <mxGeometry relative="1" as="geometry" />
        </mxCell>
        <mxCell id="kllltfMufQYbzrhNUkab-17" value="分钟的个位数是否为9" style="rounded=1;whiteSpace=wrap;html=1;" vertex="1" parent="1">
          <mxGeometry x="170" y="480" width="120" height="60" as="geometry" />
        </mxCell>
        <mxCell id="kllltfMufQYbzrhNUkab-44" style="edgeStyle=orthogonalEdgeStyle;rounded=0;orthogonalLoop=1;jettySize=auto;html=1;entryX=1;entryY=0.5;entryDx=0;entryDy=0;" edge="1" parent="1" source="kllltfMufQYbzrhNUkab-20" target="kllltfMufQYbzrhNUkab-1">
          <mxGeometry relative="1" as="geometry">
            <Array as="points">
              <mxPoint x="650" y="330" />
              <mxPoint x="650" y="130" />
            </Array>
          </mxGeometry>
        </mxCell>
        <mxCell id="kllltfMufQYbzrhNUkab-20" value="秒钟+01H" style="rounded=1;whiteSpace=wrap;html=1;" vertex="1" parent="1">
          <mxGeometry x="414" y="300" width="120" height="60" as="geometry" />
        </mxCell>
        <mxCell id="kllltfMufQYbzrhNUkab-30" value="N" style="edgeStyle=orthogonalEdgeStyle;rounded=0;orthogonalLoop=1;jettySize=auto;html=1;" edge="1" parent="1" source="kllltfMufQYbzrhNUkab-22" target="kllltfMufQYbzrhNUkab-29">
          <mxGeometry relative="1" as="geometry" />
        </mxCell>
        <mxCell id="kllltfMufQYbzrhNUkab-34" value="Y" style="edgeStyle=orthogonalEdgeStyle;rounded=0;orthogonalLoop=1;jettySize=auto;html=1;" edge="1" parent="1" source="kllltfMufQYbzrhNUkab-22" target="kllltfMufQYbzrhNUkab-32">
          <mxGeometry relative="1" as="geometry" />
        </mxCell>
        <mxCell id="kllltfMufQYbzrhNUkab-22" value="&lt;span style=&quot;color: rgb(0 , 0 , 0) ; font-family: &amp;#34;helvetica&amp;#34; ; font-size: 12px ; font-style: normal ; font-weight: 400 ; letter-spacing: normal ; text-align: center ; text-indent: 0px ; text-transform: none ; word-spacing: 0px ; background-color: rgb(248 , 249 , 250) ; display: inline ; float: none&quot;&gt;分钟的十位数是否为5&lt;/span&gt;" style="rounded=1;whiteSpace=wrap;html=1;" vertex="1" parent="1">
          <mxGeometry x="170" y="570" width="120" height="60" as="geometry" />
        </mxCell>
        <mxCell id="kllltfMufQYbzrhNUkab-46" style="edgeStyle=orthogonalEdgeStyle;rounded=0;orthogonalLoop=1;jettySize=auto;html=1;" edge="1" parent="1" source="kllltfMufQYbzrhNUkab-23">
          <mxGeometry relative="1" as="geometry">
            <mxPoint x="650" y="420" as="targetPoint" />
          </mxGeometry>
        </mxCell>
        <mxCell id="kllltfMufQYbzrhNUkab-23" value="秒钟清零/+A0H（进位）&lt;br&gt;分钟+01H" style="rounded=1;whiteSpace=wrap;html=1;" vertex="1" parent="1">
          <mxGeometry x="414" y="480" width="120" height="60" as="geometry" />
        </mxCell>
        <mxCell id="kllltfMufQYbzrhNUkab-47" style="edgeStyle=orthogonalEdgeStyle;rounded=0;orthogonalLoop=1;jettySize=auto;html=1;" edge="1" parent="1" source="kllltfMufQYbzrhNUkab-29">
          <mxGeometry relative="1" as="geometry">
            <mxPoint x="650" y="510" as="targetPoint" />
          </mxGeometry>
        </mxCell>
        <mxCell id="kllltfMufQYbzrhNUkab-29" value="秒钟清零&lt;br&gt;分钟+07H" style="rounded=1;whiteSpace=wrap;html=1;" vertex="1" parent="1">
          <mxGeometry x="414" y="570" width="120" height="60" as="geometry" />
        </mxCell>
        <mxCell id="kllltfMufQYbzrhNUkab-35" value="Y" style="edgeStyle=orthogonalEdgeStyle;rounded=0;orthogonalLoop=1;jettySize=auto;html=1;" edge="1" parent="1" source="kllltfMufQYbzrhNUkab-32" target="kllltfMufQYbzrhNUkab-33">
          <mxGeometry relative="1" as="geometry" />
        </mxCell>
        <mxCell id="kllltfMufQYbzrhNUkab-38" value="N" style="edgeStyle=orthogonalEdgeStyle;rounded=0;orthogonalLoop=1;jettySize=auto;html=1;" edge="1" parent="1" source="kllltfMufQYbzrhNUkab-32" target="kllltfMufQYbzrhNUkab-36">
          <mxGeometry relative="1" as="geometry" />
        </mxCell>
        <mxCell id="kllltfMufQYbzrhNUkab-32" value="&lt;span style=&quot;font-family: &amp;#34;helvetica&amp;#34;&quot;&gt;时钟的个位数是否为9&lt;/span&gt;" style="rounded=1;whiteSpace=wrap;html=1;" vertex="1" parent="1">
          <mxGeometry x="170" y="660" width="120" height="60" as="geometry" />
        </mxCell>
        <mxCell id="kllltfMufQYbzrhNUkab-39" value="" style="edgeStyle=orthogonalEdgeStyle;rounded=0;orthogonalLoop=1;jettySize=auto;html=1;" edge="1" parent="1" source="kllltfMufQYbzrhNUkab-33" target="kllltfMufQYbzrhNUkab-37">
          <mxGeometry relative="1" as="geometry" />
        </mxCell>
        <mxCell id="kllltfMufQYbzrhNUkab-41" value="N" style="edgeStyle=orthogonalEdgeStyle;rounded=0;orthogonalLoop=1;jettySize=auto;html=1;" edge="1" parent="1" source="kllltfMufQYbzrhNUkab-33" target="kllltfMufQYbzrhNUkab-37">
          <mxGeometry relative="1" as="geometry" />
        </mxCell>
        <mxCell id="kllltfMufQYbzrhNUkab-43" value="Y" style="edgeStyle=orthogonalEdgeStyle;rounded=0;orthogonalLoop=1;jettySize=auto;html=1;" edge="1" parent="1" source="kllltfMufQYbzrhNUkab-33" target="kllltfMufQYbzrhNUkab-42">
          <mxGeometry relative="1" as="geometry" />
        </mxCell>
        <mxCell id="kllltfMufQYbzrhNUkab-33" value="&lt;span style=&quot;font-family: &amp;#34;helvetica&amp;#34;&quot;&gt;时钟是否等于23&lt;/span&gt;" style="rounded=1;whiteSpace=wrap;html=1;" vertex="1" parent="1">
          <mxGeometry x="170" y="750" width="120" height="60" as="geometry" />
        </mxCell>
        <mxCell id="kllltfMufQYbzrhNUkab-48" style="edgeStyle=orthogonalEdgeStyle;rounded=0;orthogonalLoop=1;jettySize=auto;html=1;" edge="1" parent="1" source="kllltfMufQYbzrhNUkab-36">
          <mxGeometry relative="1" as="geometry">
            <mxPoint x="650" y="600" as="targetPoint" />
          </mxGeometry>
        </mxCell>
        <mxCell id="kllltfMufQYbzrhNUkab-36" value="秒钟清零&lt;br&gt;分钟清零&lt;br&gt;时钟+01H" style="rounded=1;whiteSpace=wrap;html=1;" vertex="1" parent="1">
          <mxGeometry x="414" y="661" width="120" height="60" as="geometry" />
        </mxCell>
        <mxCell id="kllltfMufQYbzrhNUkab-49" style="edgeStyle=orthogonalEdgeStyle;rounded=0;orthogonalLoop=1;jettySize=auto;html=1;" edge="1" parent="1" source="kllltfMufQYbzrhNUkab-37">
          <mxGeometry relative="1" as="geometry">
            <mxPoint x="650" y="690" as="targetPoint" />
          </mxGeometry>
        </mxCell>
        <mxCell id="kllltfMufQYbzrhNUkab-37" value="&lt;span&gt;秒钟清零&lt;/span&gt;&lt;br&gt;&lt;span&gt;分钟清零&lt;/span&gt;&lt;br&gt;&lt;span&gt;时钟+07H&lt;/span&gt;" style="rounded=1;whiteSpace=wrap;html=1;" vertex="1" parent="1">
          <mxGeometry x="414" y="750" width="120" height="60" as="geometry" />
        </mxCell>
        <mxCell id="kllltfMufQYbzrhNUkab-50" style="edgeStyle=orthogonalEdgeStyle;rounded=0;orthogonalLoop=1;jettySize=auto;html=1;" edge="1" parent="1" source="kllltfMufQYbzrhNUkab-42">
          <mxGeometry relative="1" as="geometry">
            <mxPoint x="650" y="780" as="targetPoint" />
          </mxGeometry>
        </mxCell>
        <mxCell id="kllltfMufQYbzrhNUkab-42" value="&lt;span style=&quot;font-family: &amp;#34;helvetica&amp;#34;&quot;&gt;秒钟清零&lt;/span&gt;&lt;br style=&quot;font-family: &amp;#34;helvetica&amp;#34;&quot;&gt;&lt;span style=&quot;font-family: &amp;#34;helvetica&amp;#34;&quot;&gt;分钟清零&lt;br&gt;&lt;/span&gt;&lt;span style=&quot;font-family: &amp;#34;helvetica&amp;#34;&quot;&gt;时钟清零&lt;/span&gt;" style="rounded=1;whiteSpace=wrap;html=1;" vertex="1" parent="1">
          <mxGeometry x="170" y="840" width="120" height="60" as="geometry" />
        </mxCell>
      </root>
    </mxGraphModel>
  </diagram>
</mxfile>
